<svg width="484" height="190" viewBox="0 0 484 190" fill="none" xmlns="http://www.w3.org/2000/svg">
<path d="M110 24.5252C108.075 25.6522 106.308 26.7065 104.506 27.7062C99.9841 30.2329 95.6563 33.014 91.3991 35.8679C88.4668 37.831 85.5874 39.8487 82.7787 41.9391C79.3871 44.4839 76.0662 47.0833 72.7805 49.7372C69.8835 52.0639 67.0925 54.4633 64.4075 56.9354C62.2877 58.8986 60.2033 60.8981 58.1719 62.9339C54.9922 66.1331 51.9186 69.4051 49.0216 72.8042C46.1599 76.1852 43.4572 79.6571 40.9488 83.2562C38.5464 86.6917 36.2677 90.1818 34.2892 93.8172C31.2686 99.3432 28.7249 105.033 26.8347 110.94C25.8632 114.012 25.0506 117.102 24.397 120.229C24.0084 122.101 23.7788 123.992 23.4961 125.882C22.9309 129.736 23.0545 133.589 23.0192 137.461C23.0015 139.751 23.4078 142.005 23.9024 144.259C24.6267 147.549 25.8985 150.694 27.718 153.657C28.9898 155.747 30.4913 157.711 32.2401 159.528C37.1686 164.673 43.4042 168.144 50.4877 170.58C53.6497 171.671 56.8647 172.58 60.2386 173.07C60.5213 173.107 60.8039 173.234 61.1749 173.343C59.8323 173.561 55.3985 173.543 54.2326 173.343C53.9853 173.307 53.7204 173.27 53.4554 173.27C50.6644 173.289 47.9087 172.943 45.1353 172.616C41.938 172.253 38.7937 171.707 35.6847 171.016C32.0458 170.217 28.5306 169.126 25.0859 167.835C21.5707 166.527 18.338 164.854 15.2997 162.873C12.7207 161.183 10.4066 159.238 8.39284 157.02C5.61948 153.984 3.58805 150.621 2.19254 146.968C1.3623 144.805 0.832359 142.569 0.514395 140.297C0.143437 137.679 -0.139198 135.062 0.0727783 132.444C0.214096 130.554 0.426072 128.645 0.726371 126.755C1.41529 122.356 2.77547 118.102 4.45362 113.94C5.37218 111.631 6.46739 109.395 7.59793 107.159C8.90511 104.578 10.4243 102.088 11.9964 99.634C13.9395 96.5802 16.13 93.6718 18.3557 90.7635C20.8641 87.4915 23.6021 84.365 26.4285 81.293C28.0359 79.548 29.6964 77.8212 31.4276 76.1489C33.2117 74.422 35.0488 72.7315 36.8153 70.9865C39.3413 68.5144 42.044 66.1877 44.7997 63.9155C47.3081 61.8615 49.7811 59.7711 52.4132 57.8261C54.0207 56.6446 55.6105 55.4449 57.1826 54.2088C58.6135 53.0818 60.1326 52.0275 61.6518 50.9914C64.5311 49.0464 67.3752 47.0469 70.3252 45.1747C72.8689 43.5751 75.4126 41.9754 77.9916 40.4122C82.1958 37.8674 86.5237 35.4861 90.8868 33.1594C93.7485 31.6507 96.6985 30.2147 99.6308 28.815C102.581 27.4154 105.601 26.1248 108.604 24.816C108.94 24.6888 109.276 24.4161 110 24.5252Z" fill="#110408"/>
<path d="M166.512 16.5C168.446 16.6273 170.204 16.3364 171.945 16.7181C172.191 16.7727 172.455 16.7545 172.719 16.7545C175.585 16.7545 178.416 17.0817 181.264 17.3908C186.838 18.0089 192.271 19.1178 197.546 20.7721C201.344 21.9719 204.966 23.4626 208.395 25.3532C211.701 27.1711 214.637 29.3162 217.239 31.8249C220.299 34.8062 222.567 38.2421 224.202 42.0051C225.257 44.4775 225.961 47.0225 226.418 49.604C226.611 50.6947 226.91 51.8218 226.734 52.9489C226.611 53.7851 227.033 54.5668 226.998 55.403C226.91 57.4936 226.717 59.5842 226.506 61.6748C226.207 64.638 225.539 67.5103 224.677 70.3825C223.446 74.491 221.828 78.4722 219.859 82.3443C219.033 83.9623 218.136 85.5438 217.239 87.1254C215.235 90.6158 212.967 93.9607 210.54 97.2511C208.307 100.269 205.951 103.214 203.454 106.068C201.872 107.886 200.219 109.649 198.548 111.394C195.735 114.321 192.799 117.157 189.845 119.957C187.418 122.247 184.886 124.447 182.372 126.628C180.209 128.501 177.976 130.319 175.673 132.046C172.596 134.354 169.536 136.7 166.371 138.936C161.712 142.226 156.947 145.407 152.041 148.407C146.643 151.715 141.122 154.86 135.425 157.787C132.84 159.114 130.203 160.369 127.548 161.587C124.857 162.823 122.114 163.986 119.389 165.168C119.02 165.331 118.686 165.604 118 165.459C119.196 164.768 120.215 164.132 121.306 163.55C124.453 161.877 127.442 159.987 130.431 158.133C132.7 156.733 134.933 155.278 137.113 153.77C139.1 152.406 141.104 151.079 143.021 149.625C144.885 148.207 146.854 146.862 148.735 145.462C149.579 144.844 150.406 144.153 151.197 143.498C152.762 142.208 154.415 141.026 155.909 139.663C157.21 138.481 158.652 137.409 160.006 136.245C162.063 134.5 163.998 132.627 165.949 130.773C169.325 127.537 172.613 124.229 175.673 120.775C178.75 117.303 181.721 113.776 184.429 110.104C186.311 107.559 188.086 104.941 189.774 102.287C191.322 99.8507 192.746 97.3602 194.1 94.8515C196.579 90.234 198.601 85.4529 200.272 80.5628C201.344 77.3996 202.258 74.2001 202.927 70.9643C203.419 68.5465 203.788 66.0923 204.105 63.6381C204.544 60.1841 204.544 56.7483 204.562 53.2943C204.579 49.7857 203.964 46.3499 202.909 42.9868C201.801 39.4601 200.096 36.1515 197.704 33.1156C196.034 30.9705 194.153 28.9708 191.955 27.2438C188.034 24.1715 183.638 21.7537 178.785 19.9358C175.391 18.6633 171.857 17.7725 168.305 16.9727C167.795 16.9181 167.18 17.1181 166.512 16.5Z" fill="#BCAE49"/>
<path fill-rule="evenodd" clip-rule="evenodd" d="M55.1953 79.2304V98.304V117.85C55.1953 118.465 55.1552 118.762 55.285 118.905C55.428 119.062 55.7773 119.032 56.6137 119.032C59.4564 119.032 62.2991 119.03 65.1418 119.028C70.8272 119.024 76.5126 119.02 82.198 119.032C86.5595 119.032 90.9211 118.868 95.2649 118.323C99.396 117.796 103.421 116.959 107.197 115.396C113.083 112.959 116.878 109.05 118.207 103.45C118.863 100.704 118.987 97.9403 118.597 95.1402C117.871 89.9036 115.087 85.7761 109.981 82.8669C107.428 81.4305 104.626 80.4304 101.701 79.7031C95.9209 78.2485 89.9636 77.7758 83.9887 77.7212C77.0742 77.6667 70.1597 77.6735 63.2453 77.6803C60.9402 77.6826 58.6351 77.6849 56.33 77.6849C55.2134 77.6849 55.213 77.703 55.1953 78.6659L55.1953 78.6667V79.2304ZM70.5847 83.7225V97.9413V112.487C70.5847 113.469 70.6024 113.487 71.7194 113.487C73.3938 113.476 75.07 113.485 76.7475 113.494C80.2568 113.513 83.7715 113.532 87.2863 113.36C90.9741 113.178 94.591 112.633 98.0128 111.36C102.694 109.615 105.779 106.669 106.931 102.305C107.445 100.378 107.516 98.4322 107.357 96.4685C107.268 95.4684 106.949 93.0138 105.566 90.5955C103.456 86.959 100.034 85.4862 97.481 84.4316C93.7577 82.9043 90.85 82.7224 86.0984 82.4497C81.3713 82.1682 74.4278 82.3171 72.2273 82.3643C71.8692 82.372 71.6368 82.377 71.5598 82.377H71.1698C70.7088 82.3588 70.567 82.577 70.5847 82.9406C70.5966 83.111 70.5926 83.2895 70.5886 83.4653C70.5866 83.5521 70.5847 83.6383 70.5847 83.7225Z" fill="#2F436F"/>
<path fill-rule="evenodd" clip-rule="evenodd" d="M126.005 80.9496V99.9761C126.005 106.523 126.005 113.051 126.04 119.562C126.04 120.481 126.058 120.5 127.091 120.5H138.313C138.926 120.5 139.204 120.514 139.331 120.383C139.447 120.262 139.435 120.018 139.435 119.526V106.541C139.435 105.884 139.415 105.57 139.562 105.421C139.725 105.256 140.096 105.296 140.931 105.296C141.903 105.296 142.876 105.297 143.849 105.298C147.744 105.301 151.646 105.304 155.537 105.26C160.399 105.206 165.244 104.827 170.017 103.908C173.028 103.331 175.949 102.465 178.567 101.004C183.893 98.0284 184.801 93.1951 183.43 89.2636C182.468 86.4862 180.206 84.6467 177.338 83.258C174.542 81.9054 171.496 81.148 168.379 80.625C163.231 79.7593 158.03 79.5068 152.811 79.5068H127.376C127.298 79.5068 127.221 79.5089 127.146 79.511C127 79.5149 126.858 79.5188 126.717 79.5068C126.129 79.4527 125.969 79.7233 126.005 80.1741C126.017 80.3431 126.013 80.5202 126.009 80.6945C126.007 80.7806 126.005 80.8661 126.005 80.9496ZM144.027 99.4965H152.625C155.635 99.5138 159.078 99.4792 162.503 99.1164C165.26 98.84 167.946 98.3735 170.415 97.2332C174.975 95.1427 175.282 89.4585 170.776 87.057C169.586 86.4178 168.324 85.9513 166.973 85.6057C164.377 84.9492 161.727 84.6209 159.042 84.5691C155.534 84.5086 152.018 84.5074 148.505 84.5062C147 84.5057 145.495 84.5052 143.991 84.5C143.018 84.5 143 84.5173 143 85.2602V98.6672C143 99.4792 143.018 99.4965 144.027 99.4965Z" fill="#2F436F"/>
<g clip-path="url(#clip0_1_161)">
<path d="M323.493 123.147C323.159 123.197 322.812 123.225 322.459 123.225C322.301 123.225 322.137 123.219 321.985 123.208C322.143 123.208 322.301 123.203 322.459 123.197C322.805 123.186 323.152 123.169 323.493 123.147Z" fill="#003257" stroke="#303564" stroke-width="0.25" stroke-miterlimit="10"/>
<path d="M447.279 105.518C446.857 105.518 446.447 105.557 446.049 105.624V105.518H447.279Z" fill="#AAAAAA" stroke="#303564" stroke-width="0.25" stroke-miterlimit="10"/>
<path d="M414.841 110.683L414.803 110.7C414.746 110.538 414.683 110.376 414.601 110.214L414.841 110.683Z" fill="#AAAAAA" stroke="#303564" stroke-width="0.25" stroke-miterlimit="10"/>
<path d="M414.601 110.214L414.841 110.683L414.803 110.7C414.74 110.538 414.683 110.376 414.601 110.214Z" fill="#AAAAAA" stroke="#303564" stroke-width="0.25" stroke-miterlimit="10"/>
<path d="M446.043 105.518H447.273C446.85 105.518 446.44 105.557 446.043 105.624V105.518Z" fill="#AAAAAA" stroke="black" stroke-width="0.25" stroke-miterlimit="10"/>
<path d="M414.797 110.7C414.74 110.538 414.677 110.376 414.595 110.214L414.835 110.683L414.797 110.7Z" stroke="#303564" stroke-width="0.25" stroke-miterlimit="10"/>
<path d="M446.043 105.624V105.518H447.273C446.85 105.518 446.447 105.557 446.043 105.624Z" stroke="#303564" stroke-width="0.25" stroke-miterlimit="10"/>
<path d="M322.459 123.197V123.226H320.875C321.248 123.226 321.613 123.22 321.985 123.208C322.143 123.208 322.301 123.203 322.459 123.197Z" fill="#AAAAAA" stroke="#303564" stroke-width="0.25" stroke-miterlimit="10"/>
<path d="M452.987 103.876L440.928 63.8769C440.776 61.0234 438.096 58.745 434.797 58.745C432.754 58.745 430.943 59.6218 429.827 60.9731C429.625 61.2188 429.442 61.4868 429.291 61.7605C429.228 61.8554 429.177 61.9615 429.133 62.0564L410.804 97.2755L392.255 60.8838L392.122 60.9396C391.012 59.6162 389.221 58.7506 387.19 58.7506C384.585 58.7506 382.365 60.1746 381.476 62.1905L381.394 62.1681L363.311 119.271L375.13 122.158L388.514 79.8977L405.191 112.61C405.216 112.677 405.254 112.732 405.285 112.799C405.374 112.95 405.462 113.101 405.563 113.246C405.607 113.308 405.651 113.369 405.689 113.43C407.543 115.921 411.347 116.619 414.179 114.994C415.566 114.201 416.468 113 416.802 111.688L433.17 80.2439L442.252 110.387H442.259C442.769 112.487 444.662 114.14 447.065 114.558C447.449 114.625 447.847 114.659 448.263 114.659H469.109C458.153 151.76 419.767 179.161 374.109 179.161C319.904 179.161 275.968 140.558 275.968 92.9478C275.968 92.032 275.987 91.1218 276.018 90.2172C276.144 86.6154 276.523 83.0751 277.141 79.5962H264.123C263.568 83.0807 263.233 86.6266 263.12 90.2172C263.088 91.1274 263.076 92.0376 263.076 92.9478C263.076 146.511 312.512 189.933 373.484 189.933C425.967 189.933 469.897 157.763 481.118 114.653C482.038 111.13 482.739 107.534 483.205 103.876H452.987ZM447.065 103.876H448.263C447.853 103.876 447.456 103.915 447.065 103.976V103.876ZM416.714 108.857L416.676 108.874C416.62 108.717 416.563 108.561 416.481 108.405L416.714 108.857ZM381.059 65.2841L381.185 65.2338C381.267 65.58 381.387 65.9151 381.539 66.2334L381.059 65.2841Z" fill="#093C6B" stroke="#303564" stroke-width="0.25" stroke-miterlimit="10"/>
<path d="M483.918 95.6226C483.918 96.4435 483.905 97.2644 483.88 98.0797H472.136C472.168 97.2644 472.18 96.4435 472.18 95.6226C472.18 93.8413 472.117 92.0711 471.997 90.3121C468.806 45.8736 425.841 10.688 373.327 10.688C331.837 10.688 296.315 32.6448 281.663 63.7708H324.212C324.672 63.7708 325.139 63.7763 325.6 63.7931C325.795 63.7987 325.997 63.8099 326.192 63.8154C326.64 63.8378 327.082 63.8657 327.53 63.8992C345.884 65.2729 360.271 78.0047 360.271 93.5007C360.271 109.209 345.493 122.069 326.779 123.152C326.445 123.175 326.104 123.191 325.764 123.203C325.612 123.208 325.454 123.214 325.303 123.214C324.937 123.225 324.578 123.231 324.218 123.231H298.478V82.472H310.834V112.615H323.19C337.041 112.615 348.274 104.06 348.274 93.5062C348.274 82.9522 337.041 74.3974 323.19 74.3974H264.249C265.151 70.9799 266.267 67.635 267.585 64.3683C267.661 64.1728 267.737 63.9774 267.819 63.7763C283.089 26.6586 324.288 0.0725937 372.708 0.0725937C432.053 0.0725937 480.55 40.0103 483.748 90.3121C483.868 92.0711 483.918 93.8357 483.918 95.6226Z" fill="#72191C" stroke="#303564" stroke-width="0.25" stroke-miterlimit="10"/>
<path d="M483.92 94.1875V96.773H483.88C483.907 95.913 483.92 95.053 483.92 94.1875Z" stroke="#303564" stroke-width="0.25" stroke-miterlimit="10"/>
</g>
<defs>
<clipPath id="clip0_1_161">
<rect width="221" height="190" fill="white" transform="translate(263)"/>
</clipPath>
</defs>
</svg>
